<?xml version="1.0" encoding="utf-8"?>
<!-- Generator: Adobe Illustrator 25.2.0, SVG Export Plug-In . SVG Version: 6.00 Build 0)  -->
<svg version="1.1" xmlns="http://www.w3.org/2000/svg" xmlns:xlink="http://www.w3.org/1999/xlink" x="0px" y="0px"
	 viewBox="0 0 726 522.2" style="enable-background:new 0 0 726 522.2;" xml:space="preserve">
<style type="text/css">
	.st0{fill:#004165;}
	.st1{fill:#01C4FF;}
	.st2{fill:#0192C5;}
	.st3{fill:url(#SVGID_1_);}
	.st4{fill:url(#SVGID_2_);}
</style>
<g id="Layer_1">
	<g>
		<path class="st0" d="M320.5,124.7l-14.1-45.9l-7.2,45.9h-10.1l9.5-59.2h12.7l14.4,47l14.1-47h12.8l9.4,59.2h-10.2l-7.2-45.9
			l-14.1,45.9H320.5z"/>
		<path class="st0" d="M378.7,124.7h-10.2V65.4h10.2V124.7z"/>
		<path class="st0" d="M386,65.4h10.2v59.2H386V65.4z M419.2,65.4h12.2l-23.2,29.1l24.8,30.1h-12.4l-24-29.2L419.2,65.4z"/>
		<path class="st0" d="M472.2,115.7v9h-36.8V65.4h36.2v9h-26.1v16h24.2v8.8h-24.2v16.5H472.2z"/>
	</g>
	<g>
		<path class="st1" d="M65.4,367.4c3.4-0.5,7.2-0.9,11.5-1.2s8.6-0.5,12.8-0.5c9.1,0,17.1,1.1,23.8,3.3c6.7,2.2,12.3,5.3,16.8,9.2
			c4.5,3.9,7.8,8.6,9.9,14.1c2.2,5.4,3.2,11.4,3.2,17.9c0,7.1-1.1,13.6-3.4,19.4c-2.3,5.8-5.6,10.8-10.1,15s-10,7.3-16.7,9.6
			c-6.7,2.2-14.4,3.4-23.3,3.4c-4.6,0-9-0.2-13.2-0.5c-4.2-0.3-8-0.7-11.4-1.2V367.4z M81.1,443.2c1.7,0.3,3.5,0.4,5.2,0.4
			c1.7,0,3.4,0,5.2,0c5.2,0,10.1-0.7,14.5-2c4.4-1.3,8.2-3.4,11.3-6.1c3.1-2.8,5.6-6.2,7.3-10.5c1.7-4.2,2.6-9.2,2.6-14.9
			c0-9.5-3.1-16.9-9.3-22.1c-6.2-5.2-15.4-7.8-27.5-7.8c-3.1,0-6.2,0.3-9.2,0.9V443.2z"/>
		<path class="st1" d="M168.8,435.7l-8,21.6h-16.6l35.6-91.5h19.3l35.7,91.5h-17.1l-8-21.6H168.8z M189.2,380.6l-15.7,42.2h31.3
			L189.2,380.6z"/>
		<path class="st2" d="M256.5,457.3h-15.7v-89.7c3-0.5,6.5-1,10.6-1.4c4.1-0.4,8.1-0.6,11.9-0.6c12.1,0,21.4,2.6,27.7,7.8
			c6.4,5.2,9.5,12.7,9.5,22.5c0,5.3-1,9.9-2.8,13.7c-1.9,3.8-4.5,7-7.8,9.5c-3.3,2.6-7.2,4.4-11.7,5.6c-4.5,1.2-9.4,1.8-14.8,1.8
			c-1.1,0-2.3,0-3.5,0c-1.2,0-2.4-0.1-3.4-0.2V457.3z M256.5,413c0.7,0.1,1.6,0.2,2.7,0.2c1.1,0,2.1,0,3.2,0c7.4,0,13-1.4,16.7-4.2
			c3.7-2.8,5.6-7.1,5.6-13c0-5.2-1.8-9.2-5.4-12.1c-3.6-2.9-9-4.3-16.2-4.3c-0.9,0-2,0-3.2,0c-1.2,0-2.4,0.2-3.4,0.5V413z"/>
	</g>
	<linearGradient id="SVGID_1_" gradientUnits="userSpaceOnUse" x1="303.6998" y1="339.5472" x2="303.6998" y2="151.1688">
		<stop  offset="0.3102" style="stop-color:#01C4FF"/>
		<stop  offset="0.4069" style="stop-color:#06C5FF"/>
		<stop  offset="0.5166" style="stop-color:#13C8FF"/>
		<stop  offset="0.6328" style="stop-color:#2ACDFF"/>
		<stop  offset="0.7534" style="stop-color:#4AD5FF"/>
		<stop  offset="0.8767" style="stop-color:#73DEFF"/>
		<stop  offset="1" style="stop-color:#A3E9FF"/>
	</linearGradient>
	<polygon class="st3" points="322.9,339.5 254.6,339.5 285.5,151.2 352.8,151.2 	"/>
	<g>
		<linearGradient id="SVGID_2_" gradientUnits="userSpaceOnUse" x1="496.5996" y1="457.3983" x2="496.5996" y2="66.5492">
			<stop  offset="0" style="stop-color:#01C4FF"/>
			<stop  offset="6.216228e-02" style="stop-color:#01BCF6"/>
			<stop  offset="0.1654" style="stop-color:#01A6DC"/>
			<stop  offset="0.297" style="stop-color:#0183B3"/>
			<stop  offset="0.4504" style="stop-color:#00537A"/>
			<stop  offset="0.5027" style="stop-color:#004165"/>
		</linearGradient>
		<polygon class="st4" points="598.7,66.5 514.5,66.5 421.7,376.5 352.8,151.2 332.6,278.4 387.5,457.4 453.3,457.4 546.1,154.7 
			593.5,457.4 660.6,457.4 		"/>
	</g>
	<polygon class="st0" points="132.5,124.6 262.7,124.6 272.2,65.4 65.4,65.4 65.4,339.4 132.5,339.4 132.5,259.7 241.4,259.7 
		250.9,200.4 132.5,200.4 	"/>
</g>
<g id="Layer_2">
</g>
</svg>
